<svg id="Laag_1" data-name="Laag 1" xmlns="http://www.w3.org/2000/svg" viewBox="0 0 89.32 89.82"><defs><style>.cls-1{fill:#082b31;}</style></defs><title>facebook</title><path class="cls-1" d="M69.94,26.17q0.07,18.7,0,37.39a6.26,6.26,0,0,1-4.62,6.29l-1.42.37H25.49A4.87,4.87,0,0,0,24.75,70,6,6,0,0,1,19.6,64.9a3.66,3.66,0,0,0-.25-0.63V25.46A2,2,0,0,0,19.57,25c0.86-3.64,3.08-5.42,6.81-5.42h36.8C67.18,19.61,69.93,22.2,69.94,26.17ZM54,31.83c0.72,0,1.09-.16,1.05-1-0.06-1.58,0-3.17,0-4.75,0-.58-0.11-0.92-0.79-0.93-1.88,0-3.75-.16-5.63-0.15a7.94,7.94,0,0,0-8,6.64,54.26,54.26,0,0,0-.38,6.89,0.76,0.76,0,0,1-.91.92c-1.42,0-2.84,0-4.26,0a0.7,0.7,0,0,0-.84.86q0,2.82,0,5.64a0.66,0.66,0,0,0,.8.8c1.32,0,2.65.06,4,0,1-.07,1.27.32,1.26,1.3,0,5.21,0,10.43,0,15.64a0.91,0.91,0,0,0,1.13,1.13q2.67-.1,5.35,0A0.94,0.94,0,0,0,48,63.62c-0.06-2.61,0-5.21,0-7.82s0-5.41,0-8.12a0.78,0.78,0,0,1,1-1c1.42,0,2.84,0,4.26,0a0.79,0.79,0,0,0,.94-0.85c0.21-1.86.45-3.72,0.72-5.57,0.1-.66-0.09-0.9-0.76-0.89-1.75,0-3.5,0-5.25,0a0.71,0.71,0,0,1-.88-0.85c0-1.35,0-2.71,0-4.06a2.44,2.44,0,0,1,2.63-2.68C51.73,31.82,52.89,31.81,54,31.83Z"/></svg>