<svg id="Laag_1" data-name="Laag 1" xmlns="http://www.w3.org/2000/svg" viewBox="0 0 87.72 89.82"><defs><style>.cls-1{fill:#082b31;}</style></defs><title>insta</title><g id="OxUwsW"><path class="cls-1" d="M71.92,44.94q0,6.64,0,13.29a13.09,13.09,0,0,1-.9,5.1,10.49,10.49,0,0,1-7.6,6.45,22,22,0,0,1-5.21.44q-12.25,0-24.49,0a14.85,14.85,0,0,1-5.07-.79,10.89,10.89,0,0,1-3.46-2A10.58,10.58,0,0,1,22.6,64a11.34,11.34,0,0,1-1.1-4.19c-0.09-1.28-.13-2.56-0.13-3.84q0-11.19,0-22.38a27.69,27.69,0,0,1,.29-4.69,10.8,10.8,0,0,1,2.69-5.6A10.59,10.59,0,0,1,31,19.85a30.71,30.71,0,0,1,3.72-.23q12.2,0,24.41,0a16.46,16.46,0,0,1,5.42.76,10.58,10.58,0,0,1,3.78,2.28,10.85,10.85,0,0,1,3.42,7.13c0.09,0.86.11,1.72,0.12,2.59C71.93,36.56,71.92,40.75,71.92,44.94ZM46.56,63.63v0c2.28,0,4.56,0,6.84-.11a24.92,24.92,0,0,0,3.31-.3,9.84,9.84,0,0,0,5.66-2.91,10.12,10.12,0,0,0,2.57-5.07,24.62,24.62,0,0,0,.39-4.82c0-3,0-5.93,0-8.9a51.5,51.5,0,0,0-.23-6,11,11,0,0,0-1.37-4.32,9.66,9.66,0,0,0-6.53-4.66,26.53,26.53,0,0,0-5.67-.44c-3.7,0-7.39,0-11.09,0a20.22,20.22,0,0,0-4.7.47,9.86,9.86,0,0,0-4.86,2.72,10.11,10.11,0,0,0-2.62,5.2,28.46,28.46,0,0,0-.38,5.45c0,3.65,0,7.3,0,10.95a23.25,23.25,0,0,0,.3,3.94,10.13,10.13,0,0,0,2.92,5.71,10,10,0,0,0,4.59,2.47,21.63,21.63,0,0,0,4.86.49C42.59,63.67,44.58,63.63,46.56,63.63Z"/><path class="cls-1" d="M62,44.9c0,1.74,0,3.48,0,5.22a39.89,39.89,0,0,1-.29,4.2,6.38,6.38,0,0,1-2.66,4.54,7.31,7.31,0,0,1-3.45,1.24,23.44,23.44,0,0,1-2.53.17c-3.91,0-7.81.06-11.72,0A23.67,23.67,0,0,1,36.93,60a6.45,6.45,0,0,1-4.61-3.18,7.3,7.3,0,0,1-.91-3c-0.09-1-.17-2-0.17-3.07,0-3.63-.06-7.26,0-10.89a24.59,24.59,0,0,1,.32-4.6,6.77,6.77,0,0,1,1.84-3.63,6.5,6.5,0,0,1,3.59-1.8,18.61,18.61,0,0,1,2.83-.28c4.06,0,8.12-.07,12.17-0.05a22.68,22.68,0,0,1,4.34.32,6.56,6.56,0,0,1,4.25,2.59,7.28,7.28,0,0,1,1.26,3.41,24.47,24.47,0,0,1,.18,2.5c0,2.19.06,4.39,0.09,6.58h0ZM46.61,54.52A9.61,9.61,0,1,0,37,44.83,9.59,9.59,0,0,0,46.61,54.52Zm10-17.39a2.2,2.2,0,0,0,2.22-2.19,2.22,2.22,0,1,0-4.44,0A2.2,2.2,0,0,0,56.62,37.12Z"/><path class="cls-1" d="M52.92,44.93a6.31,6.31,0,1,1-6.28-6.32A6.33,6.33,0,0,1,52.92,44.93Z"/></g></svg>