<svg id="Laag_1" data-name="Laag 1" xmlns="http://www.w3.org/2000/svg" viewBox="0 0 92.45 89.82"><defs><style>.cls-1{fill:#082b31;}</style></defs><title>facebook</title><g id="fyMKZH"><path class="cls-1" d="M23.08,61.16V28.69c0.08-.27.16-0.53,0.23-0.8a10.53,10.53,0,0,1,6.54-7.58,23.68,23.68,0,0,1,2.3-.69H64.62a3,3,0,0,0,.48.19,10.49,10.49,0,0,1,8.58,10.38q0,14.81,0,29.62A10.49,10.49,0,0,1,63.28,70.23q-14.87,0-29.73,0a9.73,9.73,0,0,1-8.42-4.39A27,27,0,0,1,23.08,61.16ZM48.4,57.71V57.54c1.69,0,3.37,0,5.06,0s3.44-.11,5.16-0.19c3.94-.17,5.82-1.7,6.17-5.6,0.32-3.66.31-7.36,0.28-11a18.73,18.73,0,0,0-.71-4.55,4.49,4.49,0,0,0-4.08-3.45,37.53,37.53,0,0,0-4.72-.31c-6,0-11.94,0-17.91.16-3.59.11-5.37,1.81-5.69,5.38S31.61,45,31.63,48.56a22.06,22.06,0,0,0,.69,4.88,4.49,4.49,0,0,0,4.31,3.7C40.55,57.42,44.48,57.53,48.4,57.71Z"/><path class="cls-1" d="M44.21,50.54V39.32l11.21,5.59Z"/></g></svg>