<?xml version="1.0" encoding="utf-8"?>
<!-- Generator: Adobe Illustrator 19.2.0, SVG Export Plug-In . SVG Version: 6.00 Build 0)  -->
<svg version="1.1" xmlns="http://www.w3.org/2000/svg" xmlns:xlink="http://www.w3.org/1999/xlink" x="0px" y="0px"
	 viewBox="0 0 1454 1432.3" style="enable-background:new 0 0 1454 1432.3;" xml:space="preserve">
<style type="text/css">
	.st0{fill:#0D5257;}
	.st1{fill:none;stroke:#FFFFFF;stroke-width:8.2848;stroke-miterlimit:10;}
	.st2{fill:#072B31;}
	.st3{display:none;}
	.st4{display:inline;}
	.st5{fill:none;stroke:#0D5257;stroke-miterlimit:10;}
</style>
<g id="Layer_1">
	<g id="XMLID_1_">
		<g>
			<g id="XMLID_2_">
				<g>
					<path class="st0" d="M1019.2,420.6l-0.7,0.7l-51.1,50.3c-62.3-61.7-148-99.8-242.6-99.8l0-72.7
						C839.6,299.1,943.7,345.5,1019.2,420.6z"/>
					<path class="st0" d="M1069.3,715.9l72.7,0c0.1,115.2-46.5,219.4-121.9,295l-1.7-1.7l-49.8-49.7
						C1030.9,897.1,1069.3,811,1069.3,715.9z"/>
					<path class="st0" d="M430.2,421.7l50.8,51.6c-62,62.3-100.3,148.2-100.2,243.1l-72.7,0c-0.1-115.2,46.5-219.4,121.9-294.9
						L430.2,421.7z"/>
					<path class="st0" d="M725.2,1060.4l0,72.7c-115.4,0.1-219.9-46.7-295.4-122.4l1.2-1.2l50.2-50.2
						C543.6,1021.8,629.9,1060.5,725.2,1060.4z"/>
				</g>
				<g>
					<path class="st1" d="M308,716.4c-0.1-115.2,46.5-219.4,121.9-294.9c75.4-75.5,179.6-122.3,294.8-122.3
						c114.9-0.1,219,46.3,294.5,121.5c75.8,75.5,122.7,179.9,122.8,295.3c0.1,115.2-46.5,219.4-121.9,295
						c-75.4,75.5-179.6,122.3-294.8,122.3c-115.4,0.1-219.9-46.7-295.4-122.4C354.6,935.4,308.1,831.3,308,716.4z"/>
					<path class="st1" d="M380.7,716.4C380.7,621.5,419,535.6,481,473.3c62.3-62.6,148.5-101.4,243.8-101.4
						c94.6-0.1,180.3,38.1,242.6,99.8c62.9,62.3,101.8,148.7,101.9,244.3c0.1,95.1-38.4,181.2-100.7,243.5
						c-62.3,62.3-148.3,100.9-243.4,101c-95.3,0.1-181.6-38.6-244-101.1C419.2,897.1,380.8,811.2,380.7,716.4z"/>
				</g>
			</g>
		</g>
	</g>
</g>
<g id="Layer_2">
	<ellipse class="st2" cx="1231" cy="715.3" rx="32.8" ry="33.5"/>
	<ellipse class="st2" cx="725.3" cy="1211.7" rx="32.8" ry="33.5"/>
	<ellipse class="st2" cx="223" cy="716" rx="32.8" ry="33.5"/>
	<ellipse class="st2" cx="724.7" cy="220.7" rx="32.8" ry="33.5"/>
</g>
<g id="Laag_4" class="st3">
	<g class="st4">
		<path class="st0" d="M729.6,703.1l21.2-105.2l44.2-219.3L661.9,604.4L556.6,783.1c8.9,7.7,19.2,14.8,30.9,21.2L727,716.4l0,0l0,0
			L729.6,703.1z"/>
		<path class="st2" d="M826.6,609.6l-31.2-231.4L751,597.6l-21.3,105.2l-2.7,13.2l79.4,113.6c17.1-3.6,33.2-8.5,47.9-14.4
			L826.6,609.6z"/>
	</g>
</g>
<g id="Laag_5">
	<circle class="st5" cx="725" cy="716" r="277.4"/>
</g>
</svg>
